<svg xmlns="http://www.w3.org/2000/svg" xmlns:xlink="http://www.w3.org/1999/xlink" xmlns:fi="http://pattern.flaticon.com/" x="0" y="0" width="100" height="100" viewBox="0 0 280 280"><rect x="0px" y="0px" width="100%" height="100%" opacity="0" fill="#ffffff"/><defs><g transform="matrix(0.6467482447624207 0 0 0.6467482447624207 10.69404584060976 7.695307284593582)" id="L1_0"><path d="M307.205,0h-204.8C46.09,0,0.005,46.085,0.005,102.4v204.81c0,56.3,46.085,102.4,102.4,102.4h204.8    c56.315,0,102.4-46.1,102.4-102.4V102.4C409.605,46.085,363.52,0,307.205,0z M375.47,307.21c0,37.632-30.612,68.265-68.265,68.265    h-204.8c-37.637,0-68.265-30.633-68.265-68.265V102.4c0-37.642,30.628-68.265,68.265-68.265h204.8    c37.653,0,68.265,30.623,68.265,68.265V307.21z" fill="#ffffff"/><circle cx="315" cy="93" r="25" fill="#ffffff"/><path d="M204.805,102.4c-56.566,0-102.4,45.839-102.4,102.4c0,56.54,45.834,102.41,102.4,102.41c56.55,0,102.4-45.87,102.4-102.41    C307.205,148.239,261.355,102.4,204.805,102.4z M204.805,273.075c-37.699,0-68.265-30.566-68.265-68.275    s30.566-68.265,68.265-68.265s68.265,30.556,68.265,68.265S242.504,273.075,204.805,273.075z" fill="#ffffff"/></g></defs><g fi:class="KUsePattern"><pattern id="pattern_L1_0" width="350" height="350" patternUnits="userSpaceOnUse"><use xlink:href="#L1_0" x="-350" y="-350"/><use xlink:href="#L1_0" x="0" y="-350"/><use xlink:href="#L1_0" x="350" y="-350"/><use xlink:href="#L1_0" x="-350" y="0"/><use xlink:href="#L1_0" x="0" y="0"/><use xlink:href="#L1_0" x="350" y="0"/><use xlink:href="#L1_0" x="-350" y="350"/><use xlink:href="#L1_0" x="0" y="350"/><use xlink:href="#L1_0" x="350" y="350"/></pattern><rect x="0" y="0" width="100%" height="100%" fill="url(#pattern_L1_0)"/></g></svg>