<svg xmlns="http://www.w3.org/2000/svg" xmlns:xlink="http://www.w3.org/1999/xlink" xmlns:fi="http://pattern.flaticon.com/" x="0" y="0" width="250" height="125" viewBox="0 0 250 125"><rect x="0px" y="0px" width="100%" height="100%" opacity="0" fill="#ffffff"/><defs><g transform="matrix(0.20196937024593353 0 0 0.20196937024593353 5.63496869802475 15.33060610294342)" id="L1_0"><path d="M476,48H36A28.031,28.031,0,0,0,8,76V372a28.031,28.031,0,0,0,28,28H198.24l-4.8,24H160a8,8,0,0,0-8,8v24a8,8,0,0,0,8,8H352a8,8,0,0,0,8-8V432a8,8,0,0,0-8-8H318.56l-4.8-24H476a28.031,28.031,0,0,0,28-28V76A28.031,28.031,0,0,0,476,48ZM344,440v8H168v-8ZM209.76,424l4.8-24h82.88l4.8,24ZM488,372a12.01,12.01,0,0,1-12,12H36a12.01,12.01,0,0,1-12-12V352H488Zm0-36H24V76A12.01,12.01,0,0,1,36,64H476a12.01,12.01,0,0,1,12,12Z" fill="#ababab"/><path d="M264,360H248a8,8,0,0,0,0,16h16a8,8,0,0,0,0-16Z" fill="#ababab"/></g><g transform="matrix(0.1171875 0 0 0.1171875 102 195)"><path d="M476,48H36A28.031,28.031,0,0,0,8,76V372a28.031,28.031,0,0,0,28,28H198.24l-4.8,24H160a8,8,0,0,0-8,8v24a8,8,0,0,0,8,8H352a8,8,0,0,0,8-8V432a8,8,0,0,0-8-8H318.56l-4.8-24H476a28.031,28.031,0,0,0,28-28V76A28.031,28.031,0,0,0,476,48ZM344,440v8H168v-8ZM209.76,424l4.8-24h82.88l4.8,24ZM488,372a12.01,12.01,0,0,1-12,12H36a12.01,12.01,0,0,1-12-12V352H488Zm0-36H24V76A12.01,12.01,0,0,1,36,64H476a12.01,12.01,0,0,1,12,12Z"/><path d="M264,360H248a8,8,0,0,0,0,16h16a8,8,0,0,0,0-16Z"/></g><path d="m496.186 447.646-40.27-116.479c-.788-2.28-2.339-6.754-5.538-10.098 3.632-4.5 5.814-10.217 5.814-16.437v-232.957c0-14.455-11.76-26.215-26.215-26.215h-348.143c-14.455 0-26.215 11.76-26.215 26.215v232.957c0 6.277 2.22 12.044 5.912 16.562-3.119 3.33-4.641 7.722-5.419 9.973l-40.27 116.479c-1.368 3.957-.685 8.286 1.874 11.877 3.037 4.263 8.313 7.017 13.44 7.017h162.711 124.138 161.76c5.415 0 11.414-3.114 14.59-7.573 2.494-3.501 3.144-7.522 1.831-11.321zm-426.567-375.971c0-6.735 5.479-12.215 12.215-12.215h348.144c6.735 0 12.215 5.479 12.215 12.215v232.957c0 6.735-5.479 12.215-12.215 12.215h-348.144c-6.735 0-12.215-5.479-12.215-12.215zm130.284 380.865 8.834-30.053h94.397l8.834 30.053zm279.861 0h-153.203l-10.555-35.906c-2.082-7.088-6.606-8.146-9.117-8.146h-101.906c-2.511 0-7.035 1.059-9.117 8.145l-10.555 35.908h-154.155c-.563 0-1.44-.49-1.871-.931l40.059-115.868c1.174-3.397 1.954-4.528 2.3-4.895h10.19 348.144 10.408c.346.367 1.125 1.498 2.299 4.895l39.926 115.486c-.689.62-2.03 1.312-2.847 1.312zm-376.733-157.929h305.749c11.626 0 21.084-9.458 21.084-21.084v-170.748c0-11.626-9.458-21.084-21.084-21.084h-305.749c-11.626 0-21.084 9.458-21.084 21.084v170.748c0 11.626 9.458 21.084 21.084 21.084zm-7.084-191.832c0-3.906 3.178-7.084 7.084-7.084h305.749c3.906 0 7.084 3.178 7.084 7.084v170.748c0 3.906-3.178 7.084-7.084 7.084h-305.749c-3.906 0-7.084-3.178-7.084-7.084zm1.88 249.124c0-3.866 3.134-7 7-7l303.397.001c3.866 0 7 3.134 7 7s-3.134 7-7 7l-303.397-.001c-3.866 0-7-3.133-7-7zm327.725 29.049c0 3.866-3.134 7-7 7h-324.053c-3.866 0-7-3.134-7-7s3.134-7 7-7h324.054c3.866 0 6.999 3.134 6.999 7z" transform="matrix(0.16588929295539856 0 0 0.16588929295539856 111.53300518630834 26.53234100341797)" id="L1_1" fill="#ababab"/><g transform="matrix(0.1388114094734192 0 0 0.1388114094734192 182.4642791748047 30.464279174804688)" id="L1_2"><path d="M366,0H146c-20.678,0-37.5,16.822-37.5,37.5v437c0,20.678,16.822,37.5,37.5,37.5h220c20.678,0,37.5-16.822,37.5-37.5v-437    C403.5,16.822,386.678,0,366,0z M388.5,407H176c-4.142,0-7.5,3.358-7.5,7.5c0,4.142,3.358,7.5,7.5,7.5h212.5v52.5    c0,12.407-10.093,22.5-22.5,22.5H146c-12.407,0-22.5-10.093-22.5-22.5V422H146c4.142,0,7.5-3.358,7.5-7.5    c0-4.142-3.358-7.5-7.5-7.5h-22.5V75h265V407z M388.5,60h-265V37.5c0-12.407,10.093-22.5,22.5-22.5h220    c12.407,0,22.5,10.093,22.5,22.5V60z" fill="#ababab"/><path d="M286,30h-30c-4.142,0-7.5,3.358-7.5,7.5c0,4.142,3.358,7.5,7.5,7.5h30c4.142,0,7.5-3.358,7.5-7.5    C293.5,33.358,290.142,30,286,30z" fill="#ababab"/><path d="M256,437c-12.407,0-22.5,10.093-22.5,22.5c0,12.407,10.093,22.5,22.5,22.5s22.5-10.093,22.5-22.5    C278.5,447.093,268.407,437,256,437z M256,467c-4.136,0-7.5-3.364-7.5-7.5s3.364-7.5,7.5-7.5s7.5,3.364,7.5,7.5    S260.136,467,256,467z" fill="#ababab"/><circle cx="226" cy="37" r="7" fill="#ababab"/></g></defs><g fi:class="KUsePattern"><pattern id="pattern_L1_0" width="350" height="350" patternUnits="userSpaceOnUse"><use xlink:href="#L1_0" x="-350" y="-350"/><use xlink:href="#L1_0" x="0" y="-350"/><use xlink:href="#L1_0" x="350" y="-350"/><use xlink:href="#L1_0" x="-350" y="0"/><use xlink:href="#L1_0" x="0" y="0"/><use xlink:href="#L1_0" x="350" y="0"/><use xlink:href="#L1_0" x="-350" y="350"/><use xlink:href="#L1_0" x="0" y="350"/><use xlink:href="#L1_0" x="350" y="350"/></pattern><rect x="0" y="0" width="100%" height="100%" fill="url(#pattern_L1_0)"/></g><g fi:class="KUsePattern" transform="matrix(1 0 0 1 20 20)"><pattern id="pattern_UNKNOWN" width="350" height="350" patternUnits="userSpaceOnUse"><use xlink:href="#UNKNOWN" x="-350" y="-350"/><use xlink:href="#UNKNOWN" x="0" y="-350"/><use xlink:href="#UNKNOWN" x="350" y="-350"/><use xlink:href="#UNKNOWN" x="-350" y="0"/><use xlink:href="#UNKNOWN" x="0" y="0"/><use xlink:href="#UNKNOWN" x="350" y="0"/><use xlink:href="#UNKNOWN" x="-350" y="350"/><use xlink:href="#UNKNOWN" x="0" y="350"/><use xlink:href="#UNKNOWN" x="350" y="350"/></pattern><rect x="0" y="0" width="100%" height="100%" fill="url(#pattern_UNKNOWN)"/></g><g fi:class="KUsePattern"><pattern id="pattern_L1_1" width="350" height="350" patternUnits="userSpaceOnUse"><use xlink:href="#L1_1" x="-350" y="-350"/><use xlink:href="#L1_1" x="0" y="-350"/><use xlink:href="#L1_1" x="350" y="-350"/><use xlink:href="#L1_1" x="-350" y="0"/><use xlink:href="#L1_1" x="0" y="0"/><use xlink:href="#L1_1" x="350" y="0"/><use xlink:href="#L1_1" x="-350" y="350"/><use xlink:href="#L1_1" x="0" y="350"/><use xlink:href="#L1_1" x="350" y="350"/></pattern><rect x="0" y="0" width="100%" height="100%" fill="url(#pattern_L1_1)"/></g><g fi:class="KUsePattern"><pattern id="pattern_L1_2" width="350" height="350" patternUnits="userSpaceOnUse"><use xlink:href="#L1_2" x="-350" y="-350"/><use xlink:href="#L1_2" x="0" y="-350"/><use xlink:href="#L1_2" x="350" y="-350"/><use xlink:href="#L1_2" x="-350" y="0"/><use xlink:href="#L1_2" x="0" y="0"/><use xlink:href="#L1_2" x="350" y="0"/><use xlink:href="#L1_2" x="-350" y="350"/><use xlink:href="#L1_2" x="0" y="350"/><use xlink:href="#L1_2" x="350" y="350"/></pattern><rect x="0" y="0" width="100%" height="100%" fill="url(#pattern_L1_2)"/></g></svg>